<mxfile host="Electron" modified="2024-02-03T19:19:15.420Z" agent="Mozilla/5.0 (Macintosh; Intel Mac OS X 10_15_7) AppleWebKit/537.36 (KHTML, like Gecko) draw.io/22.1.18 Chrome/120.0.6099.199 Electron/28.1.2 Safari/537.36" etag="xYd8ESmsHPVI7sKWz_tt" version="22.1.18" type="device">
  <diagram name="Page-1" id="wUhoOfrLZGyN6aXAbxS5">
    <mxGraphModel dx="1839" dy="1689" grid="1" gridSize="10" guides="1" tooltips="1" connect="1" arrows="1" fold="1" page="1" pageScale="1" pageWidth="850" pageHeight="1100" math="0" shadow="0">
      <root>
        <mxCell id="0" />
        <mxCell id="1" parent="0" />
        <mxCell id="pRt9LQoPD-m86j-3pA-L-1" value="DB" style="shape=cylinder3;whiteSpace=wrap;html=1;boundedLbl=1;backgroundOutline=1;size=15;fillColor=#dae8fc;strokeColor=#6c8ebf;" vertex="1" parent="1">
          <mxGeometry x="130" y="180" width="60" height="80" as="geometry" />
        </mxCell>
        <mxCell id="pRt9LQoPD-m86j-3pA-L-2" value="Salesforce" style="rounded=1;whiteSpace=wrap;html=1;fillColor=#dae8fc;strokeColor=#6c8ebf;" vertex="1" parent="1">
          <mxGeometry x="60" y="140" width="120" height="60" as="geometry" />
        </mxCell>
        <mxCell id="pRt9LQoPD-m86j-3pA-L-10" style="edgeStyle=orthogonalEdgeStyle;rounded=0;orthogonalLoop=1;jettySize=auto;html=1;" edge="1" parent="1" source="pRt9LQoPD-m86j-3pA-L-4" target="pRt9LQoPD-m86j-3pA-L-7">
          <mxGeometry relative="1" as="geometry" />
        </mxCell>
        <mxCell id="pRt9LQoPD-m86j-3pA-L-4" value="DB" style="shape=cylinder3;whiteSpace=wrap;html=1;boundedLbl=1;backgroundOutline=1;size=15;" vertex="1" parent="1">
          <mxGeometry x="120" y="330" width="60" height="80" as="geometry" />
        </mxCell>
        <mxCell id="pRt9LQoPD-m86j-3pA-L-6" value="DB" style="shape=cylinder3;whiteSpace=wrap;html=1;boundedLbl=1;backgroundOutline=1;size=15;" vertex="1" parent="1">
          <mxGeometry x="130" y="510" width="60" height="80" as="geometry" />
        </mxCell>
        <mxCell id="pRt9LQoPD-m86j-3pA-L-7" value="&lt;span style=&quot;color: rgb(0, 0, 0); font-family: Helvetica; font-size: 12px; font-style: normal; font-variant-ligatures: normal; font-variant-caps: normal; font-weight: 400; letter-spacing: normal; orphans: 2; text-align: center; text-indent: 0px; text-transform: none; widows: 2; word-spacing: 0px; -webkit-text-stroke-width: 0px; background-color: rgb(251, 251, 251); text-decoration-thickness: initial; text-decoration-style: initial; text-decoration-color: initial; float: none; display: inline !important;&quot;&gt;Integrated&lt;br&gt;Cleaned/DQ&lt;br&gt;&lt;br&gt;&lt;/span&gt;" style="shape=cylinder3;whiteSpace=wrap;html=1;boundedLbl=1;backgroundOutline=1;size=15;" vertex="1" parent="1">
          <mxGeometry x="480" y="260" width="150" height="190" as="geometry" />
        </mxCell>
        <mxCell id="pRt9LQoPD-m86j-3pA-L-9" value="ETL" style="edgeStyle=orthogonalEdgeStyle;rounded=0;orthogonalLoop=1;jettySize=auto;html=1;entryX=0;entryY=0;entryDx=0;entryDy=55;entryPerimeter=0;" edge="1" parent="1" source="pRt9LQoPD-m86j-3pA-L-1" target="pRt9LQoPD-m86j-3pA-L-7">
          <mxGeometry relative="1" as="geometry" />
        </mxCell>
        <mxCell id="pRt9LQoPD-m86j-3pA-L-11" style="edgeStyle=orthogonalEdgeStyle;rounded=0;orthogonalLoop=1;jettySize=auto;html=1;entryX=0;entryY=0;entryDx=0;entryDy=135;entryPerimeter=0;" edge="1" parent="1" source="pRt9LQoPD-m86j-3pA-L-6" target="pRt9LQoPD-m86j-3pA-L-7">
          <mxGeometry relative="1" as="geometry" />
        </mxCell>
        <mxCell id="pRt9LQoPD-m86j-3pA-L-22" style="edgeStyle=orthogonalEdgeStyle;rounded=0;orthogonalLoop=1;jettySize=auto;html=1;" edge="1" parent="1" source="pRt9LQoPD-m86j-3pA-L-12" target="pRt9LQoPD-m86j-3pA-L-7">
          <mxGeometry relative="1" as="geometry" />
        </mxCell>
        <mxCell id="pRt9LQoPD-m86j-3pA-L-12" value="Consultant" style="shape=umlActor;verticalLabelPosition=bottom;verticalAlign=top;html=1;outlineConnect=0;fillColor=#ffe6cc;strokeColor=#d79b00;" vertex="1" parent="1">
          <mxGeometry x="760" y="240" width="30" height="60" as="geometry" />
        </mxCell>
        <mxCell id="pRt9LQoPD-m86j-3pA-L-3" value="NetSuite" style="rounded=1;whiteSpace=wrap;html=1;" vertex="1" parent="1">
          <mxGeometry x="50" y="290" width="120" height="60" as="geometry" />
        </mxCell>
        <mxCell id="pRt9LQoPD-m86j-3pA-L-5" value="HR System" style="rounded=1;whiteSpace=wrap;html=1;" vertex="1" parent="1">
          <mxGeometry x="50" y="470" width="120" height="60" as="geometry" />
        </mxCell>
        <mxCell id="pRt9LQoPD-m86j-3pA-L-16" value="Tarek Atwan (STRING 100)&lt;br&gt;Tarek A. A&lt;br&gt;Tarek A. Atwan" style="whiteSpace=wrap;html=1;aspect=fixed;" vertex="1" parent="1">
          <mxGeometry x="-80" y="120" width="130" height="130" as="geometry" />
        </mxCell>
        <mxCell id="pRt9LQoPD-m86j-3pA-L-17" value="Customer Info (STRING 200)&lt;br&gt;Customer ADdress" style="whiteSpace=wrap;html=1;aspect=fixed;" vertex="1" parent="1">
          <mxGeometry x="-70" y="290" width="110" height="110" as="geometry" />
        </mxCell>
        <mxCell id="pRt9LQoPD-m86j-3pA-L-18" value="EMployee" style="whiteSpace=wrap;html=1;aspect=fixed;" vertex="1" parent="1">
          <mxGeometry x="-50" y="460" width="80" height="80" as="geometry" />
        </mxCell>
        <mxCell id="pRt9LQoPD-m86j-3pA-L-20" value="DW" style="ellipse;whiteSpace=wrap;html=1;aspect=fixed;" vertex="1" parent="1">
          <mxGeometry x="540" y="145" width="80" height="80" as="geometry" />
        </mxCell>
        <mxCell id="pRt9LQoPD-m86j-3pA-L-21" value="MDM&lt;br&gt;Master Data Management" style="ellipse;whiteSpace=wrap;html=1;aspect=fixed;" vertex="1" parent="1">
          <mxGeometry x="530" y="40" width="100" height="100" as="geometry" />
        </mxCell>
        <mxCell id="pRt9LQoPD-m86j-3pA-L-23" value="Data Engineers" style="shape=umlActor;verticalLabelPosition=bottom;verticalAlign=top;html=1;outlineConnect=0;" vertex="1" parent="1">
          <mxGeometry x="270" y="180" width="30" height="60" as="geometry" />
        </mxCell>
        <mxCell id="pRt9LQoPD-m86j-3pA-L-25" value="Data Engineers" style="shape=umlActor;verticalLabelPosition=bottom;verticalAlign=top;html=1;outlineConnect=0;" vertex="1" parent="1">
          <mxGeometry x="270" y="310" width="30" height="60" as="geometry" />
        </mxCell>
        <mxCell id="pRt9LQoPD-m86j-3pA-L-26" value="Customer Service" style="shape=umlActor;verticalLabelPosition=bottom;verticalAlign=top;html=1;outlineConnect=0;fillColor=#dae8fc;strokeColor=#6c8ebf;" vertex="1" parent="1">
          <mxGeometry x="105" y="50" width="30" height="60" as="geometry" />
        </mxCell>
        <mxCell id="pRt9LQoPD-m86j-3pA-L-27" value="Customer Service" style="shape=umlActor;verticalLabelPosition=bottom;verticalAlign=top;html=1;outlineConnect=0;fillColor=#dae8fc;strokeColor=#6c8ebf;" vertex="1" parent="1">
          <mxGeometry x="115" y="60" width="30" height="60" as="geometry" />
        </mxCell>
        <mxCell id="pRt9LQoPD-m86j-3pA-L-28" value="Customer Service" style="shape=umlActor;verticalLabelPosition=bottom;verticalAlign=top;html=1;outlineConnect=0;fillColor=#dae8fc;strokeColor=#6c8ebf;" vertex="1" parent="1">
          <mxGeometry x="125" y="70" width="30" height="60" as="geometry" />
        </mxCell>
        <mxCell id="pRt9LQoPD-m86j-3pA-L-29" value="Customer Service" style="shape=umlActor;verticalLabelPosition=bottom;verticalAlign=top;html=1;outlineConnect=0;fillColor=#dae8fc;strokeColor=#6c8ebf;" vertex="1" parent="1">
          <mxGeometry x="135" y="80" width="30" height="60" as="geometry" />
        </mxCell>
        <mxCell id="pRt9LQoPD-m86j-3pA-L-30" value="Customer Service" style="shape=umlActor;verticalLabelPosition=bottom;verticalAlign=top;html=1;outlineConnect=0;fillColor=#dae8fc;strokeColor=#6c8ebf;" vertex="1" parent="1">
          <mxGeometry x="145" y="90" width="30" height="60" as="geometry" />
        </mxCell>
        <mxCell id="pRt9LQoPD-m86j-3pA-L-33" value="Data Sources" style="rounded=0;whiteSpace=wrap;html=1;" vertex="1" parent="1">
          <mxGeometry x="-80" y="-70" width="300" height="60" as="geometry" />
        </mxCell>
        <mxCell id="pRt9LQoPD-m86j-3pA-L-34" value="Analytics Layer&lt;br&gt;DW&lt;br&gt;Data Lake" style="rounded=0;whiteSpace=wrap;html=1;" vertex="1" parent="1">
          <mxGeometry x="430" y="-90" width="300" height="60" as="geometry" />
        </mxCell>
      </root>
    </mxGraphModel>
  </diagram>
</mxfile>
